<?xml version="1.0" standalone="no"?>
<!DOCTYPE svg PUBLIC "-//W3C//DTD SVG 20010904//EN"
 "http://www.w3.org/TR/2001/REC-SVG-20010904/DTD/svg10.dtd">
<svg version="1.0" xmlns="http://www.w3.org/2000/svg"
 width="2000.000000pt" height="2000.000000pt" viewBox="0 0 2000.000000 2000.000000"
 preserveAspectRatio="xMidYMid meet">

<g transform="translate(0.000000,2000.000000) scale(0.100000,-0.100000)"
fill="#000000" stroke="none">
<path d="M5796 14960 c-239 -53 -395 -187 -487 -416 -98 -245 -139 -506 -139
-888 0 -422 59 -854 186 -1361 35 -139 104 -387 122 -435 7 -20 2 -40 -26
-100 -119 -256 -264 -642 -288 -767 -5 -28 -10 -32 -50 -38 -110 -16 -294 -99
-404 -181 -214 -162 -355 -384 -411 -649 -7 -33 -13 -123 -13 -200 0 -114 4
-157 23 -229 52 -202 137 -352 282 -498 93 -94 95 -98 75 -111 -41 -28 -122
-111 -177 -184 -226 -299 -269 -712 -110 -1056 97 -212 269 -390 476 -496 160
-82 268 -106 475 -106 142 1 177 4 250 25 202 56 333 132 482 281 l108 106 92
-70 c107 -81 336 -233 453 -299 115 -65 503 -258 520 -258 1 0 19 -7 38 -15
l36 -15 -36 -62 c-179 -317 -324 -709 -377 -1019 l-6 -36 -133 -6 c-152 -6
-237 -27 -355 -86 -197 -100 -341 -276 -408 -496 -24 -80 -27 -106 -27 -230 1
-332 132 -621 408 -901 95 -96 251 -224 288 -237 7 -2 -14 -31 -46 -66 -102
-111 -147 -231 -147 -392 1 -156 32 -252 90 -281 32 -16 76 -18 475 -18 l441
0 14 -42 c8 -22 28 -51 43 -62 l28 -21 1907 -3 c1049 -2 2187 0 2530 4 l622 6
22 23 c12 13 27 38 34 57 l11 33 529 5 c415 4 534 8 552 18 29 16 47 59 67
153 40 191 -13 392 -140 525 l-50 52 99 74 c288 213 495 504 577 813 15 57 23
122 26 226 6 175 -11 259 -84 409 -40 81 -61 109 -143 191 -104 105 -192 163
-306 203 -151 53 -317 60 -500 21 l-30 -7 -13 74 c-54 311 -201 714 -359 985
-23 39 -42 75 -42 80 0 4 49 28 108 53 256 107 594 292 823 453 l111 77 70
-65 c113 -104 248 -178 423 -231 82 -25 105 -27 260 -28 187 -1 258 11 393 65
565 226 821 891 551 1433 -63 126 -192 287 -275 342 -21 14 -19 17 71 107 100
100 167 195 220 311 90 198 115 432 70 646 -65 305 -279 580 -560 718 l-83 41
-22 83 c-49 184 -153 469 -242 664 l-59 132 30 93 c164 512 275 1103 301 1600
28 554 -80 1078 -265 1277 -151 164 -344 230 -635 219 -318 -12 -674 -112
-1160 -324 -127 -56 -531 -260 -654 -332 -49 -28 -95 -51 -103 -51 -7 0 -44
15 -81 34 -105 53 -351 149 -537 211 -341 113 -688 185 -1085 227 -162 17
-735 16 -890 0 -596 -66 -1096 -199 -1594 -426 -43 -20 -83 -36 -89 -36 -5 0
-78 38 -161 84 -153 85 -417 218 -536 270 -36 16 -83 37 -105 46 -271 121
-592 225 -836 271 -168 31 -414 35 -533 9z m451 -210 c329 -54 709 -194 1210
-446 135 -68 252 -129 259 -135 11 -9 1 -19 -52 -50 -36 -22 -68 -39 -70 -39
-1 0 -32 -18 -68 -41 -37 -23 -70 -38 -77 -33 -7 4 -9 3 -6 -3 4 -6 -25 -31
-65 -57 l-71 -46 -41 19 c-324 152 -623 233 -856 233 -239 1 -360 -80 -435
-290 -61 -170 -80 -334 -72 -622 3 -118 10 -240 15 -270 6 -30 15 -95 21 -145
6 -49 16 -116 22 -149 8 -47 8 -61 -4 -75 -37 -42 -187 -267 -262 -394 -33
-53 -62 -94 -66 -90 -10 11 -94 337 -123 478 -95 459 -133 819 -123 1170 9
309 56 556 142 741 102 223 347 305 722 244z m8125 5 c163 -35 265 -109 327
-239 164 -340 195 -915 87 -1591 -37 -228 -115 -577 -183 -814 l-15 -54 -39
68 c-22 36 -36 72 -32 78 3 7 3 9 -2 5 -9 -8 -268 379 -261 390 9 15 33 182
61 422 28 240 15 560 -29 745 -20 83 -69 198 -101 241 -100 131 -308 179 -560
130 -49 -10 -113 -22 -141 -27 -89 -16 -339 -106 -482 -174 -52 -25 -96 -45
-99 -45 -3 0 -23 13 -46 29 -60 42 -273 172 -329 201 l-47 25 47 29 c26 17
142 78 257 136 715 361 1258 513 1587 445z m-4022 -215 c1072 -60 2098 -486
2933 -1220 632 -555 1105 -1222 1406 -1983 28 -70 51 -141 51 -157 0 -17 5
-30 11 -30 7 0 9 -10 5 -27 -4 -18 -3 -23 2 -15 7 10 11 6 15 -15 3 -15 1 -32
-4 -38 -7 -7 -8 -4 -4 8 4 10 2 17 -4 17 -6 0 -11 -10 -12 -22 0 -13 -3 -17
-6 -9 -5 11 -7 11 -14 0 -5 -9 -1 -18 14 -27 l22 -13 -23 5 c-15 3 -22 0 -19
-7 2 -7 10 -13 18 -13 8 -1 28 -3 44 -4 17 -2 -32 -6 -107 -10 -76 -5 -172
-16 -215 -25 -316 -70 -575 -270 -718 -554 -56 -112 -109 -178 -180 -226 -118
-78 -50 -73 -1210 -81 -1012 -7 -1035 -7 -1035 12 0 12 -13 -1 -37 -36 -119
-178 -291 -259 -518 -246 -174 10 -341 67 -428 145 -47 42 -111 137 -102 151
3 6 16 10 28 10 44 0 174 42 262 85 263 127 456 380 416 542 -18 68 -46 117
-88 152 -76 62 -60 61 -797 60 -487 0 -680 -4 -703 -12 -109 -40 -173 -132
-173 -248 0 -56 5 -77 35 -135 110 -220 347 -387 620 -440 44 -8 90 -17 103
-20 l22 -4 -19 -39 c-110 -216 -556 -321 -817 -194 -70 34 -170 125 -216 196
-25 39 -34 47 -36 33 -4 -19 -35 -19 -1134 -12 -1266 8 -1185 3 -1303 81 -72
48 -120 108 -186 235 -153 293 -419 491 -739 551 -36 6 -69 15 -74 20 -5 4 1
5 14 2 22 -6 22 -5 15 63 -4 38 -11 79 -16 90 -23 62 206 584 397 906 405 684
978 1282 1649 1721 856 560 1857 832 2855 777z m-4893 -3532 c-3 -7 -5 -2 -5
12 0 14 2 19 5 13 2 -7 2 -19 0 -25z m-22 2 c3 -5 -1 -10 -10 -10 -9 0 -13 5
-10 10 3 6 8 10 10 10 2 0 7 -4 10 -10z m5175 -201 c49 -17 100 -57 100 -79 0
-28 -53 -67 -117 -85 -73 -22 -238 -17 -298 9 -48 20 -85 54 -85 76 0 32 65
72 155 94 34 9 208 -2 245 -15z m-5109 -73 c239 -51 470 -237 567 -458 60
-137 185 -265 327 -334 158 -76 114 -74 1410 -74 l1143 0 73 -74 c111 -110
220 -158 403 -177 173 -18 375 21 501 96 33 20 85 61 115 91 l56 54 39 -41
c166 -173 479 -248 755 -182 124 30 260 113 317 192 l28 41 1051 0 c1195 0
1162 -2 1319 74 142 69 267 197 327 334 79 180 257 348 446 421 111 42 194 54
341 49 107 -4 139 -10 213 -35 217 -75 404 -245 494 -449 91 -207 89 -469 -5
-671 -67 -142 -174 -264 -302 -343 -108 -67 -129 -90 -129 -140 0 -50 29 -82
128 -143 126 -78 250 -222 311 -362 59 -135 78 -352 45 -506 -23 -105 -100
-259 -173 -346 -104 -122 -217 -198 -381 -255 -91 -31 -101 -32 -245 -32 -142
0 -155 2 -243 32 -243 83 -381 208 -513 463 -112 219 -234 332 -425 395 l-89
29 -3405 0 -3405 0 -88 -29 c-137 -45 -257 -131 -342 -246 -18 -25 -60 -99
-93 -165 -119 -236 -266 -366 -504 -447 -88 -30 -101 -32 -243 -32 -144 0
-154 1 -245 32 -231 80 -389 217 -490 427 -59 124 -80 215 -80 356 0 181 37
306 135 454 65 98 135 166 249 240 99 65 116 85 116 138 0 47 -24 71 -129 137
-128 79 -235 201 -302 343 -94 203 -97 464 -5 671 102 230 330 419 571 471 80
18 274 18 356 1z m7871 -2577 c86 -18 174 -65 237 -127 45 -44 70 -83 116
-175 35 -71 55 -121 49 -125 -6 -4 -71 -48 -145 -98 -617 -418 -1397 -694
-2339 -828 -163 -23 -241 -32 -525 -57 -184 -17 -919 -23 -1156 -10 -1363 74
-2485 439 -3282 1066 l-58 46 33 62 c63 119 182 211 311 243 71 17 6678 20
6759 3z m-5672 -1554 c47 -43 77 -73 68 -66 -15 11 -18 11 -18 -1 0 -22 11
-28 31 -17 13 6 19 6 19 -1 0 -5 -7 -10 -15 -10 -22 0 -18 -13 15 -51 16 -19
30 -38 30 -42 0 -4 36 -43 80 -85 90 -89 225 -186 247 -178 8 3 11 1 8 -5 -4
-6 2 -8 18 -4 15 4 28 2 32 -5 5 -9 1 -10 -15 -5 -15 5 -20 4 -16 -3 10 -17
150 -85 281 -136 66 -26 134 -54 151 -61 17 -8 59 -19 93 -26 34 -6 64 -16 67
-20 3 -5 16 -9 29 -9 13 0 34 -4 47 -9 48 -19 170 -42 191 -36 14 4 17 3 10
-2 -12 -8 33 -18 282 -59 182 -30 299 -66 438 -134 54 -26 105 -47 115 -45 9
1 11 0 5 -2 -10 -3 -10 -8 1 -19 8 -8 19 -14 25 -14 6 0 11 -5 11 -11 0 -7 30
-8 93 -3 134 9 294 -19 400 -72 26 -14 47 -22 47 -19 0 3 6 1 13 -5 6 -5 37
-26 67 -46 30 -20 85 -68 122 -107 69 -72 168 -219 168 -248 0 -9 6 -19 14
-22 8 -3 16 -16 19 -29 3 -17 5 -14 7 12 2 32 3 33 9 10 4 -14 2 -41 -5 -60
-52 -149 -140 -763 -200 -1384 -14 -149 -28 -281 -30 -293 l-4 -23 -569 0
-568 0 -7 88 c-17 228 -80 762 -142 1207 -29 212 -91 465 -114 465 -19 0 -39
-194 -40 -390 0 -137 -14 -211 -55 -290 l-16 -30 36 0 c34 0 35 1 36 38 3 76
17 -70 29 -293 11 -221 34 -546 49 -705 4 -47 7 -86 7 -87 -1 -1 -175 -3 -386
-4 l-385 -2 -25 49 c-21 41 -25 63 -25 136 l0 88 -33 -33 c-40 -39 -89 -136
-100 -197 l-8 -45 -112 -1 c-129 -2 -131 -1 -169 83 -32 70 -40 147 -20 196
20 47 11 47 -35 0 -47 -48 -76 -114 -91 -205 -11 -67 -14 -72 -37 -71 -14 0
-65 1 -114 2 l-88 1 4 103 c3 91 7 109 36 167 39 77 90 118 227 185 195 95
388 139 589 134 85 -3 121 0 123 8 6 17 -99 68 -204 99 -78 24 -105 27 -243
28 -132 0 -169 -3 -245 -23 -93 -24 -194 -70 -254 -115 l-34 -25 -29 37 c-172
214 -335 508 -433 777 -200 552 -178 1211 60 1796 46 112 137 302 177 367 l20
33 77 -73 c42 -40 114 -109 161 -153z m5017 190 c0 -8 -4 -12 -8 -10 -3 3 -13
-3 -20 -12 -12 -15 -12 -16 3 -10 21 8 30 -4 17 -23 -7 -12 -9 -12 -9 -1 0 11
-3 11 -15 1 -13 -11 -14 -10 -9 5 6 14 4 16 -7 10 -8 -4 -1 6 15 23 35 37 33
36 33 17z m-61 -67 c4 -7 3 -8 -5 -4 -6 4 -14 1 -17 -7 -3 -8 -19 -24 -37 -37
-29 -21 -29 -20 8 19 44 47 41 45 51 29z m81 -30 c-3 -8 -6 -5 -6 6 -1 11 2
17 5 13 3 -3 4 -12 1 -19z m-102 -18 c-3 -5 -12 -10 -18 -10 -7 0 -6 4 3 10
19 12 23 12 15 0z m153 -22 c-2 -6 -12 -12 -21 -14 -9 -1 -15 2 -11 7 3 5 10
7 15 4 5 -4 9 -1 9 4 0 6 3 11 6 11 3 0 4 -5 2 -12z m-232 -17 c0 -11 -5 -17
-13 -14 -10 4 -11 9 -2 19 15 18 15 18 15 -5z m-5 -31 c5 0 9 -5 9 -10 0 -7
-7 -7 -20 0 -11 6 -26 8 -32 4 -7 -5 -8 -3 -4 5 5 7 15 10 23 7 8 -3 19 -6 24
-6z m289 -41 c0 -3 -6 -6 -14 -6 -8 0 -11 8 -8 20 3 14 1 18 -6 13 -8 -5 -10
-1 -5 10 5 14 8 13 19 -7 7 -13 13 -27 14 -30z m-330 9 c0 -5 9 -7 19 -3 11 3
22 2 24 -2 3 -5 -12 -8 -33 -8 -29 0 -37 3 -33 15 3 8 -11 -3 -31 -25 -19 -21
-38 -36 -41 -33 -10 10 68 76 82 71 7 -3 13 -9 13 -15z m-110 -51 c0 -2 -10
-12 -22 -23 l-23 -19 19 23 c18 21 26 27 26 19z m454 -12 c-4 -8 -10 -15 -15
-15 -4 0 -6 7 -3 15 4 8 10 15 15 15 4 0 6 -7 3 -15z m-34 -30 c0 -5 -5 -3
-10 5 -5 8 -10 20 -10 25 0 6 5 3 10 -5 5 -8 10 -19 10 -25z m53 12 c3 -8 -1
-14 -8 -14 -7 0 -11 6 -8 14 3 7 6 13 8 13 2 0 5 -6 8 -13z m-5018 -28 c-3 -4
3 -7 12 -6 10 0 30 -7 46 -17 31 -21 35 -28 10 -19 -9 4 -14 2 -10 -3 3 -5
-12 -9 -33 -9 -31 0 -36 2 -28 13 8 9 13 10 18 2 4 -6 14 -8 24 -4 15 6 15 7
-1 19 -12 9 -24 10 -34 4 -13 -7 -17 -5 -14 9 1 9 -3 24 -9 32 -10 13 -9 13 6
1 10 -7 15 -17 13 -22z m-30 11 c3 -5 2 -10 -4 -10 -5 0 -13 5 -16 10 -3 6 -2
10 4 10 5 0 13 -4 16 -10z m4490 -50 c-3 -5 -11 -10 -16 -10 -6 0 -7 5 -4 10
3 6 11 10 16 10 6 0 7 -4 4 -10z m589 -16 c3 -8 2 -12 -4 -9 -6 3 -10 10 -10
16 0 14 7 11 14 -7z m-4947 -15 c2 -17 -1 -18 -13 -8 -13 11 -10 20 11 29 1 0
1 -9 2 -21z m106 -60 c7 -1 16 -1 20 0 5 1 6 -3 2 -9 -4 -6 -16 -5 -35 5 -35
18 -44 19 -34 3 4 -7 3 -8 -5 -4 -8 6 -9 12 -2 20 6 7 7 17 3 22 -4 5 3 -1 16
-13 13 -13 28 -24 35 -24z m4163 40 c8 -13 -14 -29 -36 -28 -11 1 -10 3 3 6 9
2 17 9 17 15 0 5 -7 7 -16 4 -8 -3 -12 -2 -9 4 8 13 32 13 41 -1z m4 -39 c-8
-5 -19 -10 -25 -10 -5 0 -3 5 5 10 8 5 20 10 25 10 6 0 3 -5 -5 -10z m689 -40
c0 -10 -3 -8 -9 5 -8 19 -9 18 -9 -4 -1 -13 -4 -22 -7 -18 -4 3 -3 18 0 34 6
21 9 24 17 12 5 -7 8 -21 8 -29z m-838 17 c-6 -8 -8 -17 -4 -20 3 -4 -2 -7
-12 -7 -17 0 -17 1 0 20 20 22 34 28 16 7z m-3931 -23 c0 -2 -7 -4 -15 -4 -8
0 -15 4 -15 10 0 5 7 7 15 4 8 -4 15 -8 15 -10z m3882 -11 c-6 -2 -10 -8 -8
-11 2 -4 -7 -7 -20 -7 -13 0 -24 1 -24 3 0 4 44 21 55 21 6 -1 4 -3 -3 -6z
m-3774 -41 c11 -8 11 -10 -2 -15 -9 -4 -15 -1 -13 6 1 7 -5 12 -14 11 -9 -1
-16 5 -16 12 0 13 9 10 45 -14z m-73 0 c-3 -3 -11 0 -18 7 -9 10 -8 11 6 5 10
-3 15 -9 12 -12z m125 -28 c0 -2 -7 -4 -15 -4 -8 0 -15 4 -15 10 0 5 7 7 15 4
8 -4 15 -8 15 -10z m3586 1 c-11 -8 -25 -15 -30 -15 -6 1 0 7 14 15 32 19 40
18 16 0z m-3568 -30 c-12 -14 -25 -25 -29 -25 -10 0 34 50 43 50 5 0 -2 -11
-14 -25z m-38 1 c0 -2 -7 -7 -16 -10 -8 -3 -12 -2 -9 4 6 10 25 14 25 6z
m3555 -14 c-3 -3 -11 0 -18 7 -9 10 -8 11 6 5 10 -3 15 -9 12 -12z m-3438 2
c-3 -3 -12 -4 -19 -1 -8 3 -5 6 6 6 11 1 17 -2 13 -5z m4583 -16 c0 -19 -2
-20 -10 -8 -13 19 -13 30 0 30 6 0 10 -10 10 -22z m-4490 -20 c13 2 13 1 1 -7
-17 -11 -39 -4 -66 22 -20 19 -20 19 15 1 19 -10 42 -17 50 -16z m27 -23 c0
-10 -10 -15 -26 -15 l-26 0 25 14 c14 8 25 14 26 15 0 1 1 -6 1 -14z m3157 3
c-5 -8 -2 -9 9 -5 10 4 24 10 34 14 11 4 14 3 9 -5 -4 -7 -14 -12 -22 -12 -8
0 -14 -5 -14 -12 0 -9 -3 -9 -12 0 -16 16 -33 15 -19 -1 8 -11 4 -13 -21 -9
l-31 5 34 18 c41 22 42 22 33 7z m-3086 -17 c11 -7 10 -9 -3 -14 -11 -5 -14
-3 -9 5 5 8 2 9 -10 5 -10 -4 -15 -3 -11 3 7 12 16 12 33 1z m-71 -17 c-3 -3
-12 -4 -19 -1 -8 3 -5 6 6 6 11 1 17 -2 13 -5z m2988 -24 c3 -6 -1 -7 -9 -4
-18 7 -21 14 -7 14 6 0 13 -4 16 -10z m-2788 -15 c0 -6 -12 -11 -26 -12 -15 0
-18 1 -8 4 9 2 15 8 13 12 -3 4 1 8 8 8 7 0 13 -5 13 -12z m2768 -5 c23 0 24
-15 2 -15 -12 -1 -33 -4 -47 -8 -21 -6 -20 -4 5 9 22 11 24 14 8 10 -13 -2
-25 0 -28 4 -3 5 5 10 17 12 13 2 25 0 26 -4 2 -5 10 -8 17 -8z m1472 -2 c-3
-8 -6 -5 -6 6 -1 11 2 17 5 13 3 -3 4 -12 1 -19z m-4297 8 c0 -2 -7 -7 -16
-10 -8 -3 -12 -2 -9 4 6 10 25 14 25 6z m2750 -10 c0 -2 -7 -7 -16 -10 -8 -3
-12 -2 -9 4 6 10 25 14 25 6z m-2730 -26 c18 -12 2 -12 -25 0 -13 6 -15 9 -5
9 8 0 22 -4 30 -9z m157 4 c-3 -3 -12 -4 -19 -1 -8 3 -5 6 6 6 11 1 17 -2 13
-5z m46 -11 c-7 -2 -19 -2 -25 0 -7 3 -2 5 12 5 14 0 19 -2 13 -5z m76 -25
c-10 -7 -7 -8 14 -5 15 2 27 0 27 -4 0 -10 -25 -11 -57 -3 -31 8 -29 19 4 21
20 1 23 -1 12 -9z m2286 2 c3 -5 -3 -10 -14 -10 -12 0 -21 5 -21 10 0 6 6 10
14 10 8 0 18 -4 21 -10z m-92 -17 c-7 -2 -19 -2 -25 0 -7 3 -2 5 12 5 14 0 19
-2 13 -5z m-1998 -18 c28 -7 41 -13 30 -13 -11 0 -42 6 -70 13 -27 7 -41 13
-30 13 11 0 43 -6 70 -13z m1930 5 c-3 -5 -18 -10 -33 -9 l-27 1 25 8 c35 11
42 11 35 0z m138 3 c-7 -2 -21 -2 -30 0 -10 3 -4 5 12 5 17 0 24 -2 18 -5z
m-210 -20 c-7 -2 -19 -2 -25 0 -7 3 -2 5 12 5 14 0 19 -2 13 -5z m-1630 -30
c-7 -2 -19 -2 -25 0 -7 3 -2 5 12 5 14 0 19 -2 13 -5z m1455 0 c-10 -2 -26 -2
-35 0 -10 3 -2 5 17 5 19 0 27 -2 18 -5z m-1374 -12 c13 -5 0 -8 -35 -8 -43 0
-48 1 -24 7 39 10 37 10 59 1z m1325 -7 c2 -2 -7 -4 -22 -4 -14 0 -29 5 -32
10 -6 10 42 4 54 -6z m-132 0 c-3 -3 -12 -4 -19 -1 -8 3 -5 6 6 6 11 1 17 -2
13 -5z m210 0 c-3 -3 -12 -4 -19 -1 -8 3 -5 6 6 6 11 1 17 -2 13 -5z m-1204
-11 c-7 -2 -19 -2 -25 0 -7 3 -2 5 12 5 14 0 19 -2 13 -5z m80 -10 c-13 -2
-33 -2 -45 0 -13 2 -3 4 22 4 25 0 35 -2 23 -4z m745 0 c-16 -2 -40 -2 -55 0
-16 2 -3 4 27 4 30 0 43 -2 28 -4z m375 0 c-7 -2 -19 -2 -25 0 -7 3 -2 5 12 5
14 0 19 -2 13 -5z m-1466 -9 c-3 -3 -12 -4 -19 -1 -8 3 -5 6 6 6 11 1 17 -2
13 -5z m466 -1 c-7 -2 -19 -2 -25 0 -7 3 -2 5 12 5 14 0 19 -2 13 -5z m300 0
c-45 -2 -122 -2 -170 0 -48 1 -11 3 82 3 94 0 133 -2 88 -3z m140 0 c-7 -2
-19 -2 -25 0 -7 3 -2 5 12 5 14 0 19 -2 13 -5z m-1166 -29 c-3 -3 -12 -4 -19
-1 -8 3 -5 6 6 6 11 1 17 -2 13 -5z m3920 -16 c-3 -8 -6 -5 -6 6 -1 11 2 17 5
13 3 -3 4 -12 1 -19z m-3844 5 c-7 -2 -19 -2 -25 0 -7 3 -2 5 12 5 14 0 19 -2
13 -5z m327 -63 c18 -12 2 -12 -25 0 -13 6 -15 9 -5 9 8 0 22 -4 30 -9z m57
-16 c-3 -3 -12 -4 -19 -1 -8 3 -5 6 6 6 11 1 17 -2 13 -5z m200 -60 c-3 -3
-12 -4 -19 -1 -8 3 -5 6 6 6 11 1 17 -2 13 -5z m3280 -56 c-2 -13 -4 -3 -4 22
0 25 2 35 4 23 2 -13 2 -33 0 -45z m-6249 46 c21 -6 22 -11 22 -121 l0 -115
-50 -48 c-27 -26 -50 -51 -50 -55 0 -4 -9 -14 -20 -23 -23 -20 -94 -154 -104
-197 -4 -16 -9 -38 -13 -49 -3 -12 -1 -16 6 -11 8 4 6 -7 -3 -30 -19 -43 -20
-104 -5 -195 16 -101 66 -263 78 -255 4 2 8 -6 8 -17 1 -11 9 -28 17 -37 9
-10 16 -21 16 -25 0 -4 25 -44 55 -89 49 -74 215 -250 272 -289 22 -14 19 -16
-78 -41 l-101 -27 -61 36 c-223 130 -436 353 -545 569 -69 137 -94 232 -99
377 -4 98 -2 142 11 195 43 176 187 341 356 407 88 35 232 55 288 40z m6827
-9 c102 -21 205 -76 283 -150 234 -221 255 -562 57 -913 -108 -190 -329 -410
-526 -521 l-56 -31 -97 27 c-86 24 -95 28 -71 36 17 6 24 14 21 24 -3 8 -2 12
3 9 19 -12 188 184 176 204 -3 6 -1 9 7 8 8 -2 12 6 11 22 -1 14 1 19 3 12 8
-17 24 -5 24 19 0 10 4 19 10 19 8 0 70 122 70 139 0 4 9 27 21 50 12 26 18
53 15 66 -3 13 -1 25 5 27 7 2 13 46 16 113 6 117 -15 252 -43 280 -8 7 -14
19 -14 25 0 20 -50 97 -75 116 -14 10 -25 24 -25 30 0 6 -9 19 -19 28 -15 13
-20 14 -25 4 -3 -7 -4 -4 -1 8 4 14 -1 24 -17 32 -13 7 -36 21 -53 32 -16 11
-36 23 -42 26 -9 4 -13 39 -13 120 0 132 -5 126 113 143 95 13 165 12 242 -4z
m-1272 -232 c-7 -2 -19 -2 -25 0 -7 3 -2 5 12 5 14 0 19 -2 13 -5z m160 -30
c-7 -2 -19 -2 -25 0 -7 3 -2 5 12 5 14 0 19 -2 13 -5z m98 -38 c121 -15 311
-108 392 -192 l38 -40 -16 -94 c-45 -261 -141 -530 -276 -775 -66 -119 -212
-341 -262 -399 l-32 -36 -35 26 c-141 106 -402 164 -615 136 -153 -20 -355
-99 -355 -138 0 -12 7 -14 38 -9 197 31 395 8 607 -71 172 -64 278 -137 323
-222 37 -69 54 -158 46 -233 l-7 -58 -92 0 -92 0 -6 63 c-8 90 -42 172 -89
219 -44 44 -54 45 -38 4 24 -63 5 -166 -43 -243 l-27 -43 -114 0 -114 0 -11
50 c-6 28 -18 67 -26 87 -17 40 -82 130 -99 136 -7 3 -11 -27 -11 -93 0 -89
-2 -100 -28 -138 l-27 -42 -405 0 -405 0 0 28 c0 15 5 56 10 92 10 70 45 568
56 790 6 122 20 239 23 183 1 -18 9 -23 47 -29 55 -8 570 -11 578 -3 8 7 30
194 30 253 -1 30 2 42 6 30 5 -14 9 -8 15 26 12 72 36 164 46 174 5 6 9 17 9
25 0 9 18 52 39 95 21 44 37 87 34 95 -4 13 -3 13 5 2 8 -11 13 -8 26 17 33
63 210 232 244 232 5 0 20 8 33 18 26 20 133 61 177 68 15 3 34 7 42 11 24 9
273 19 291 11 8 -4 40 -10 70 -13z m166 -1 c-3 -3 -12 -4 -19 -1 -8 3 -5 6 6
6 11 1 17 -2 13 -5z m270 -16 c-3 -8 -6 -5 -6 6 -1 11 2 17 5 13 3 -3 4 -12 1
-19z m313 -35 c0 -12 -4 -23 -10 -23 -11 0 -14 -43 -4 -53 8 -7 54 13 54 24 0
11 31 -1 49 -19 12 -12 12 -15 0 -23 -8 -5 -17 -9 -20 -9 -4 0 -10 -7 -13 -16
-6 -16 22 -63 39 -64 6 0 23 -16 38 -36 28 -34 28 -36 11 -55 -9 -10 -20 -19
-24 -19 -4 0 -33 26 -64 57 -49 51 -58 57 -75 46 -25 -16 -50 9 -35 35 11 19
7 52 -7 52 -5 0 -9 -7 -9 -17 0 -9 -3 -14 -6 -11 -3 4 -7 38 -10 76 l-4 71 27
3 c20 2 28 8 27 21 -2 17 -1 17 17 1 10 -9 19 -28 19 -41z m-595 27 c3 -6 -1
-7 -9 -4 -18 7 -21 14 -7 14 6 0 13 -4 16 -10z m75 -30 c0 -5 -2 -10 -4 -10
-3 0 -8 5 -11 10 -3 6 -1 10 4 10 6 0 11 -4 11 -10z m-6023 -82 c-2 -13 -4 -3
-4 22 0 25 2 35 4 23 2 -13 2 -33 0 -45z m5153 48 c0 -3 -4 -8 -10 -11 -5 -3
-10 -1 -10 4 0 6 5 11 10 11 6 0 10 -2 10 -4z m-156 -96 c-6 -6 -10 -3 -10 10
0 13 4 16 10 10 7 -7 7 -13 0 -20z m-4987 -42 c-3 -7 -5 -2 -5 12 0 14 2 19 5
13 2 -7 2 -19 0 -25z m4979 -6 c-17 -16 -18 -16 -5 5 7 12 15 20 18 17 3 -2
-3 -12 -13 -22z m1455 -23 c-5 -26 -9 -34 -10 -19 -1 27 9 73 15 67 2 -2 0
-23 -5 -48z m-2436 -49 c3 -5 1 -10 -4 -10 -6 0 -11 5 -11 10 0 6 2 10 4 10 3
0 8 -4 11 -10z m-3978 -52 c-3 -8 -6 -5 -6 6 -1 11 2 17 5 13 3 -3 4 -12 1
-19z m4060 -20 c-3 -8 -6 -5 -6 6 -1 11 2 17 5 13 3 -3 4 -12 1 -19z m2323
-58 l-11 -25 6 25 c2 14 5 36 6 50 l2 25 4 -25 c2 -14 -1 -37 -7 -50z m-6373
28 c-3 -8 -6 -5 -6 6 -1 11 2 17 5 13 3 -3 4 -12 1 -19z m6430 -97 c-5 -58
-39 -131 -62 -131 -6 0 -17 -15 -23 -32 l-12 -33 4 35 5 35 -18 -37 c-30 -65
-30 -53 2 70 18 66 34 119 37 117 3 -2 14 17 24 42 l19 46 15 -28 c10 -20 13
-46 9 -84z m-1628 45 c-22 -20 -22 -20 -6 0 9 11 17 27 18 35 0 11 2 11 6 0 3
-7 -5 -23 -18 -35z m-4812 2 c-3 -8 -6 -5 -6 6 -1 11 2 17 5 13 3 -3 4 -12 1
-19z m20 0 c-3 -8 -6 -5 -6 6 -1 11 2 17 5 13 3 -3 4 -12 1 -19z m-270 -60
c-3 -8 -6 -5 -6 6 -1 11 2 17 5 13 3 -3 4 -12 1 -19z m260 -20 c-3 -8 -6 -5
-6 6 -1 11 2 17 5 13 3 -3 4 -12 1 -19z m7 -54 c3 -8 2 -12 -4 -9 -6 3 -10 10
-10 16 0 14 7 11 14 -7z m6363 -76 c-3 -8 -6 -5 -6 6 -1 11 2 17 5 13 3 -3 4
-12 1 -19z m-1638 -28 c0 -10 -3 -8 -9 5 -12 27 -12 43 0 25 5 -8 9 -22 9 -30z
m-4662 8 c-3 -8 -6 -5 -6 6 -1 11 2 17 5 13 3 -3 4 -12 1 -19z m4651 -43 c-3
-3 -9 2 -12 12 -6 14 -5 15 5 6 7 -7 10 -15 7 -18z m-4637 -62 c-12 -20 -14
-14 -5 12 4 9 9 14 11 11 3 -2 0 -13 -6 -23z m6202 7 c3 -11 1 -18 -4 -14 -5
3 -9 12 -9 20 0 20 7 17 13 -6z m-42 -83 c-10 -9 -11 -8 -5 6 3 10 9 15 12 12
3 -3 0 -11 -7 -18z m4 -27 c-3 -5 -12 -10 -18 -10 -7 0 -6 4 3 10 19 12 23 12
15 0z m-2188 -52 c-3 -7 -5 -2 -5 12 0 14 2 19 5 13 2 -7 2 -19 0 -25z m-3888
-18 c0 -10 -3 -8 -9 5 -12 27 -12 43 0 25 5 -8 9 -22 9 -30z m6048 -22 c-3 -8
-6 -5 -6 6 -1 11 2 17 5 13 3 -3 4 -12 1 -19z m-6013 -64 c3 -8 2 -12 -4 -9
-6 3 -10 10 -10 16 0 14 7 11 14 -7z m5963 -16 c-3 -7 -5 -2 -5 12 0 14 2 19
5 13 2 -7 2 -19 0 -25z m363 28 c0 -2 -7 -7 -16 -10 -8 -3 -12 -2 -9 4 6 10
25 14 25 6z m-339 -39 c-10 -9 -11 -8 -5 6 3 10 9 15 12 12 3 -3 0 -11 -7 -18z
m19 -27 c0 -5 -4 -10 -10 -10 -5 0 -10 5 -10 10 0 6 5 10 10 10 6 0 10 -4 10
-10z m-5958 -34 c6 4 5 -3 -2 -15 -14 -27 -30 -19 -22 11 3 12 7 17 10 10 2
-7 8 -9 14 -6z m5878 -17 c0 -6 -4 -8 -9 -5 -5 3 -14 -8 -21 -24 -7 -17 -15
-29 -17 -27 -7 8 30 76 39 71 4 -3 8 -10 8 -15z m-5858 -29 c5 -31 -6 -41 -16
-15 -5 13 1 45 9 45 1 0 5 -13 7 -30z m5848 -29 c0 -6 -4 -13 -10 -16 -5 -3
-10 1 -10 9 0 9 5 16 10 16 6 0 10 -4 10 -9z m120 -11 c20 -6 21 -8 5 -8 -11
0 -29 3 -40 8 -25 11 1 11 35 0z m73 -27 c-7 -2 -19 -2 -25 0 -7 3 -2 5 12 5
14 0 19 -2 13 -5z m-5855 -221 c9 -10 52 -67 95 -125 l78 -106 -19 -38 c-27
-54 -44 -108 -51 -167 -6 -50 -6 -51 -41 -51 -32 0 -36 4 -48 40 -9 27 -12 68
-9 125 l5 85 -40 -45 c-41 -46 -90 -134 -102 -182 l-6 -28 -119 0 -119 0 -21
51 c-31 71 -37 135 -17 183 9 22 14 41 12 44 -12 12 -66 -43 -93 -95 -24 -45
-53 -144 -53 -180 0 -2 -28 -3 -62 -1 l-63 3 1 91 c0 80 4 99 29 148 78 155
301 257 578 265 34 1 52 -4 65 -17z m5901 -17 c176 -48 298 -130 343 -232 25
-57 40 -148 32 -200 l-6 -43 -94 0 -94 0 0 28 c0 74 -53 189 -106 231 -31 24
-52 28 -34 6 34 -41 27 -155 -14 -232 l-17 -33 -117 0 -118 0 -13 48 c-13 51
-40 101 -81 149 -44 51 -47 48 -46 -45 1 -53 -4 -100 -13 -119 l-13 -33 -78 0
-78 0 -12 68 c-6 37 -23 95 -36 130 l-25 62 81 109 81 108 57 12 c31 6 68 13
82 15 60 11 229 -5 319 -29z"/>
<path d="M7570 11915 c-41 -7 -87 -18 -102 -24 -34 -13 -68 -66 -68 -106 0
-36 31 -89 60 -105 14 -7 111 -11 298 -10 194 0 303 -4 362 -14 168 -28 295
-96 361 -193 37 -54 47 -63 71 -63 33 0 51 30 44 74 -28 170 -207 334 -441
404 -168 50 -418 66 -585 37z"/>
<path d="M11999 11914 c-114 -18 -251 -62 -336 -109 -129 -72 -236 -204 -262
-323 -8 -38 -7 -46 10 -63 25 -25 45 -24 69 4 11 12 41 46 67 75 53 60 104 93
189 123 114 40 204 49 499 49 322 0 330 2 354 79 11 37 10 47 -6 78 -10 20
-29 45 -43 55 -60 43 -359 61 -541 32z"/>
</g>
</svg>
